# xmcd
#
# Track frame offsets: 
#        150
#        14780
#        26571
#        40684
#        55508
#        73729
#        91664
#        105822
#        124117
#        139795
#        153604
#        170640
#        192241
#
# Disc length: 2725 seconds
#
# Revision: 0
# Processed by: cddbd v1.5.1PL0 Copyright (c) Steve Scherf et al.
# Submitted via: ExactAudioCopy v0.95a4
#
DISCID=a60aa30d
DTITLE=The Cox Family - Beyond the City
DYEAR=1900
DGENRE=Bluegrass
TTITLE0=Lovin' You
TTITLE1=Cowboy's Dream
TTITLE2=Another Lonesome Morning
TTITLE3=Beautiful Bouquet
TTITLE4=I'll Be All Smiles Tonight
TTITLE5=Lizzy and the Rainman
TTITLE6=Little Birdie
TTITLE7=Blue Bayou
TTITLE8=Streets of Gold
TTITLE9=Broken Engagement
TTITLE10=Cotton Dan
TTITLE11=Beyond the City
TTITLE12=Broken Engagement [1974 Version]
EXTD=
EXTT0=
EXTT1=
EXTT2=
EXTT3=
EXTT4=
EXTT5=
EXTT6=
EXTT7=
EXTT8=
EXTT9=
EXTT10=
EXTT11=
EXTT12=
PLAYORDER=
